# xmcd
#
# Track frame offsets:
# 150
# 19371
# 33831
# 54536
# 68137
# 82793
# 95729
# 109250
# 120516
# 134504
# 150320
# 165383
# 179443
# 190784
# 211127
#
# Disc length: 2992 seconds
#
#
# Revision: 0
# Processed by: cddbd v1.5.2PL0 Copyright (c) Steve Scherf et al.
# Submitted via: FreeRIP 2.945 
#
DISCID=bf0bae0f
DTITLE=Ataide and Alexandre - Recomeçãr
DYEAR=2006
DGENRE=Country
TTITLE0=Recomeçar
TTITLE1=Na Cara do Meu Coracao
TTITLE2=Sina - Part. Rck e Renner
TTITLE3=Voce Nao Vai Me Ver Chorar
TTITLE4=Come Quieto
TTITLE5=Ficando Com as Erradas
TTITLE6=Louco Querer
TTITLE7=Metade Com Metade
TTITLE8=Nois Namora
TTITLE9=O Tempo do Amor
TTITLE10=O Tranco da Morena Rosa - Part. Chiquinho e Bordoneio
TTITLE11=Quero Ver Chapeu Voar
TTITLE12=Se Fo... Desse Jeito
TTITLE13=Viola Mulher
TTITLE14=O Doce Toque do Amor
EXTD=
EXTT0=
EXTT1=
EXTT2=
EXTT3=
EXTT4=
EXTT5=
EXTT6=
EXTT7=
EXTT8=
EXTT9=
EXTT10=
EXTT11=
EXTT12=
EXTT13=
EXTT14=
PLAYORDER=
